<svg xmlns="http://www.w3.org/2000/svg" viewBox="0 0 500 500" width="500" height="500">
  <path
    d="M 200,80 L 340,80 C 375,80 400,102 402,137 L 405,195 C 407,228 387,250 355,252 L 290,255 L 288,180 C 286,155 268,140 248,145 C 228,150 218,170 222,193 L 230,260 L 180,268 C 150,273 130,298 133,330 L 140,420 C 145,458 170,477 208,473 L 360,473 C 395,473 418,453 418,422 L 418,395 C 418,365 395,348 362,352 L 280,360 L 275,305 L 355,295 C 388,290 408,268 405,237"
    fill="none"
    stroke="white"
    stroke-width="18"
    stroke-linecap="round"
    stroke-linejoin="round"
  />
</svg>