<svg xmlns="http://www.w3.org/2000/svg" viewBox="0 0 500 500" width="500" height="500">
  <path
    d="M 120,180 L 380,180 C 410,180 430,200 430,230 L 430,260 C 430,290 410,305 385,300 L 320,290 C 295,285 280,300 280,325 L 280,360 C 280,385 300,400 325,395 L 385,380 C 415,373 435,390 440,420 L 440,450 C 440,475 415,490 390,485 L 140,485 C 110,485 90,465 90,440 L 90,200 C 90,188 104,180 120,180 Z"
    fill="none"
    stroke="white"
    stroke-width="18"
    stroke-linecap="round"
    stroke-linejoin="round"
  />
</svg>