<svg xmlns="http://www.w3.org/2000/svg" viewBox="0 0 500 500" width="500" height="500">
  <path
    d="M 100,280 L 140,200 C 158,168 188,152 222,158 L 300,172 C 340,180 362,208 358,248 L 352,295 C 347,330 322,348 288,342 L 245,335 C 215,330 198,350 202,382 L 210,430 C 215,460 238,475 268,470 L 360,455 C 395,448 418,465 415,498 L 120,498 C 88,498 65,476 65,445 L 65,315 C 65,295 80,280 100,280 Z"
    fill="none"
    stroke="white"
    stroke-width="18"
    stroke-linecap="round"
    stroke-linejoin="round"
  />
</svg>