<svg xmlns="http://www.w3.org/2000/svg" viewBox="0 0 500 500" width="500" height="500">
  <path
    d="M 180,120 C 240,100 310,108 348,148 L 390,200 C 418,238 412,285 378,308 L 330,332 C 295,350 288,390 310,420 L 340,455 C 362,485 350,515 318,525 L 260,535 C 225,540 195,522 185,490 L 165,430 C 152,392 168,360 200,345 L 245,328 C 278,315 285,278 265,252 L 235,218 C 212,190 218,155 248,138 L 180,120 Z"
    fill="none"
    stroke="white"
    stroke-width="18"
    stroke-linecap="round"
    stroke-linejoin="round"
  />
</svg>