<svg xmlns="http://www.w3.org/2000/svg" viewBox="0 0 500 500" width="500" height="500">
  <path
    d="M 100,200 C 100,150 130,120 170,120 L 330,120 C 380,120 410,140 420,180 L 420,220 C 420,250 400,270 370,275 L 300,280 C 270,282 260,300 265,330 C 270,360 300,375 330,370 L 380,360 C 410,355 430,370 430,400 L 430,430 C 430,460 400,475 370,470 L 150,470 C 120,470 100,450 100,420 L 100,200 Z"
    fill="none"
    stroke="white"
    stroke-width="18"
    stroke-linecap="round"
    stroke-linejoin="round"
  />
</svg>