<svg xmlns="http://www.w3.org/2000/svg" viewBox="0 0 500 500" width="500" height="500">
  <path
    d="M 100,150 L 390,150 C 422,150 445,170 445,200 L 445,240 C 445,268 424,285 395,280 L 290,268 L 285,220 C 283,200 265,188 245,193 C 225,198 213,218 218,238 L 228,285 L 160,295 C 128,300 105,325 108,358 L 115,420 C 120,455 145,472 180,468 L 380,468 C 412,468 432,450 430,420 L 425,390 C 420,362 398,348 370,353 L 295,362 L 290,308 L 395,295 C 428,290 448,268 445,237"
    fill="none"
    stroke="white"
    stroke-width="18"
    stroke-linecap="round"
    stroke-linejoin="round"
  />
</svg>