<?xml version="1.0" encoding="utf-8"?>
<!-- Generator: Adobe Illustrator 25.0.0, SVG Export Plug-In . SVG Version: 6.00 Build 0)  -->
<svg version="1.1" id="Layer_1" xmlns="http://www.w3.org/2000/svg" xmlns:xlink="http://www.w3.org/1999/xlink" x="0px" y="0px"
	 viewBox="0 0 876 767" style="enable-background:new 0 0 876 767;" xml:space="preserve">
<style type="text/css">
	.st0{fill:#E1E1E1;}
	.st1{font-family:'SFProText-Bold';}
	.st2{font-size:29.26px;}
	.st3{fill:#9B9B9B;}
	.st4{font-family:'SFProText-Regular';}
	.st5{font-size:14.63px;}
	.st6{fill:#FF9219;}
	.st7{font-size:14.5px;}
	.st8{letter-spacing:-1;}
	.st9{fill:#F2F2F2;}
	.st10{fill:#EBEBEB;}
	.st11{fill:url(#SVGID_1_);}
	.st12{opacity:0.37;enable-background:new    ;}
	.st13{opacity:0.2;enable-background:new    ;}
	.st14{fill:#FFFFFF;fill-opacity:0.7;}
	.st15{fill:#D0021B;fill-opacity:0.2;}
	.st16{fill:#FFFFFF;}
	.st17{fill:#D0021B;}
	.st18{fill-rule:evenodd;clip-rule:evenodd;fill:#151617;}
	.st19{fill:#151617;}
	.st20{fill-rule:evenodd;clip-rule:evenodd;}
	.st21{fill:#FFB819;fill-opacity:0.2;}
	.st22{fill:#FFB819;}
</style>
<g id="Track">
	<text transform="matrix(1 0 0 1 546.68 42.24)" class="st0 st1 st2">EN</text>
	<text transform="matrix(1 0 0 1 587.36 42.24)" class="st0 st1 st2">Z</text>
	<text transform="matrix(1 0 0 1 606.42 42.24)" class="st0 st1 st2">O E DINO FERRARI</text>
	<text transform="matrix(1 0 0 1 798.29 12.39)" class="st3 st4 st5">A</text>
	<text transform="matrix(1 0 0 1 807.79 12.39)" class="st3 st4 st5">u</text>
	<text transform="matrix(1 0 0 1 816.33 12.39)" class="st3 st4 st5">t</text>
	<text transform="matrix(1 0 0 1 821.54 12.39)" class="st3 st4 st5">od</text>
	<text transform="matrix(1 0 0 1 839.17 12.39)" class="st3 st4 st5">r</text>
	<text transform="matrix(1 0 0 1 844.53 12.39)" class="st3 st4 st5">omo</text>
	<g id="DRS-Det.-zone-1-Copy">
		<text transform="matrix(1 0 0 1 643.45 336.82)" class="st6 st4 st7">DRS</text>
		<text transform="matrix(1 0 0 1 643.45 353.94)" class="st6 st4 st7">DE</text>
		<text transform="matrix(1 0 0 1 662.62 353.94)" class="st6 st4 st7 st8">T</text>
		<text transform="matrix(1 0 0 1 670.61 353.94)" class="st6 st4 st7">.</text>
		<text transform="matrix(1 0 0 1 643.45 371.07)" class="st6 st4 st7">Z</text>
		<text transform="matrix(1 0 0 1 652.62 371.07)" class="st6 st4 st7">ONE 1</text>
	</g>
	<path class="st9" d="M508.5,177.7h-1.1c-9.2-0.1-21.8-2.6-35.2-5.2c-10.3-2-21-4.1-31.4-5.4c-14.4-1.8-44.3,8.1-44.6,8.2
		c-1.4,0.5-2.8-0.3-3.3-1.6c-0.5-1.4,0.3-2.8,1.6-3.3l0,0c1.3-0.4,31.4-10.4,46.9-8.4c10.6,1.3,21.4,3.4,31.8,5.5
		c13.1,2.6,25.6,5,34.3,5.1c16,0.2,122.4-4.7,131.2-5.8c9.5-1.1,19.5-6.2,30-11.6c11.2-5.7,22.7-11.6,33.9-12.6
		c8.5-0.8,37,2,38.2,2.1c1.4,0.1,2.5,1.3,2.5,2.7c-0.1,1.4-1.3,2.5-2.7,2.5c-0.1,0-0.2,0-0.2,0c-0.3,0-29.2-2.8-37.2-2.1
		c-10.2,0.9-21.3,6.6-32,12c-10.5,5.4-21.4,10.9-31.8,12.2C630.6,173,527.9,177.7,508.5,177.7z"/>
	<path class="st10" d="M794.5,183.9l-18.7-35.5c-3-5.7-9.8-8.2-15.7-5.8c-76,30.6-113.2,45-116.1,45.7c-8.9,1.6-126.2,5.4-136.9,5.4
		c-6.7,0-29-4.1-48.6-7.8c-25.5-4.7-51.9-9.6-63.1-9.6c-6.3,0-23.9,2-42.6,4.2c-12.3,1.4-23.9,2.8-31.4,3.4
		c-14,1.2-72.4,11.4-80.6,20.8c-3.2,3.6-5.4,10.2-7.7,17.2c-1,3.3-2.1,6.4-3.5,9.6c-2.3,2.3-18,10.5-24,13.6
		c-10,5.2-15.9,8.3-18.3,10.5c-5.7,5-8.4,12.9-8.9,14.7c-9.2,24.1-54.3,143.6-54.3,157c0,11.1,3.5,19,6.1,24.8
		c0.8,1.6,1.5,3.2,2,4.8c0,0.2-0.1,1.3-1.4,3.5c-1.1,1.7-2.4,3.2-3.9,4.5l-59.1,50.8c-5,4.2-9,9.4-11.7,15.3
		c-1.6,3.3-2.6,6.9-2.7,10.6c0,13,7.7,20.1,21.7,20.1c4.8,0,24.9-3.4,59.9-9.5c31.9-5.5,75.5-13.1,83.8-13.1
		c12.6,0,42.5,4.5,62.3,7.5c5.7,0.9,10.8,1.6,14.6,2.2c5.4,0.8,10.8-0.3,15.5-3c4.5-2.6,8-6.5,10-11.3c8.4-19.4,18.4-44.9,18.2-55.8
		c-0.4-9.8-8.1-43.8-16-77.8l-0.2-0.7c-1-4.4-1.9-8.2-2.5-11c-0.3-1.3,0-2.6,0.8-3.6l21.8-29.1l11.3,4c3.4,1.2,6.9,1.8,10.5,1.6
		c59.1-2.3,159.8-6.1,169-6.3c1.1,1.1,2.2,2.2,3.2,3.5c2.8,3.4,6.7,8.1,12.5,8.1c8.3,0,94.5-46.7,102.9-54.3
		c4.8-4.3,20.6-20.8,37.4-38.3c15.1-15.7,35.7-37.2,38.6-39.4l0.3-0.2c4.2-3.8,36.1-21.3,51.5-29.7l0.7-0.4l8.6-4.7
		C795.4,197.4,797.6,189.9,794.5,183.9z M679.9,265.5C664,282,647.7,299,643.2,303c-8.1,7.3-79.8,45.1-93.1,50.3
		c-0.6-0.6-1.3-1.5-2.3-2.7c-3-3.6-6.7-8.2-12.7-8.5c-3.8-0.2-169.1,6.2-170.8,6.3c-1.8,0.1-3.6-0.2-5.3-0.8l-12.3-4.4
		c-5.1-1.8-10.8-0.1-14.1,4.2l-22.5,30c-3.2,4.3-4.4,9.8-3.2,15c0.6,2.9,1.5,6.7,2.5,11.1l0.2,0.8c4.9,21.4,15.2,65.8,15.6,75
		c0.1,4.9-4.4,20.5-17.1,49.9c-1.8,4.2-6.3,6.7-10.9,6.1c-3.7-0.5-8.5-1.3-14-2.1l-0.5-0.1c-21.4-3.2-50.7-7.7-64.4-7.7
		c-9.4,0-46.7,6.4-86.2,13.3c-23.9,4.1-53.6,9.2-57.5,9.2c-7.8,0-7.8-2.4-7.8-6.3c0.2-1.7,0.7-3.3,1.5-4.8c1.9-4.1,4.7-7.7,8.1-10.6
		l59.1-50.8c2.6-2.3,4.9-4.9,6.8-7.9c2.1-3.2,3.2-6.9,3.4-10.7c0-3.5-1.4-6.8-3.1-10.5c-2.3-5.1-4.9-10.9-4.9-19.1
		c0-7.3,27.2-83.2,53.6-152.5l0.1-0.4c0.4-1.6,2.2-6.1,4.8-8.4c1.4-1.2,10-5.7,15.7-8.6c18.3-9.5,26.5-14.2,29.2-18.4
		c1.9-3,3.4-7.8,5.1-12.8c1.2-3.7,3.4-10.6,4.8-12.3c4.6-3.6,49.9-14.4,71.5-16.3c7.7-0.7,19.5-2,32-3.5c16.6-1.9,35.4-4.1,40.9-4.1
		c10,0,36.9,5,60.7,9.4c23.2,4.3,43.1,8,51.1,8c6.6,0,128-3.5,139.4-5.6c3.9-0.7,43.5-16.2,117.6-46l17.5,33.2l-8,4.4
		c-30.6,16.8-49.2,27.3-53.8,31.3C716.3,227.7,702.4,242.1,679.9,265.5z"/>
	<path class="st9" d="M74.8,551.5c-12.1,0-18.3-5.6-18.3-16.7c0.2-3.2,1-6.3,2.4-9.2c2.5-5.4,6.2-10.3,10.8-14.1l59.1-50.8
		c1.8-1.5,3.4-3.3,4.6-5.4c1.1-1.6,1.7-3.4,1.9-5.3c0-1.3-1.1-3.7-2.2-6.3c-2.5-5.5-5.8-13-5.8-23.4c0-13.1,48.4-140.7,54.1-155.9
		c0.4-1.2,2.8-8.7,7.9-13.2c2.2-1.9,8.1-5,17.6-10c8.8-4.6,23.4-12.2,25.2-14.7c1.2-1.9,2.6-6.3,4-10.5c2.2-6.6,4.2-12.9,7-16
		c6.7-7.7,62.1-18.3,78.3-19.7c7.6-0.6,19.3-2,31.7-3.4c18.5-2.1,36-4.2,42.1-4.2c10.9,0,37.1,4.9,62.5,9.6
		c20.8,3.9,42.3,7.8,49.2,7.8c11.1,0,128.1-3.7,137.6-5.4c3.6-0.8,49.4-18.8,116.8-45.9c4.3-1.7,9.2,0.1,11.3,4.2l18.7,35.5
		c2.3,4.3,0.7,9.7-3.6,12.1l-9.2,5.1c-16.6,9.1-47.6,26.2-52.1,30.2l-0.2,0.1c-3,2.3-22.1,22.2-38.9,39.7s-32.5,33.8-37.2,38.1
		c-9.4,8.5-94,53.4-100.5,53.4c-4.2,0-7.2-3.6-9.9-6.9c-1.6-2-3.8-4.7-5.2-4.7h-0.1c-5.6,0-108.9,3.9-169.7,6.3
		c-3.1,0.1-6.3-0.3-9.2-1.4l-12.3-4.4c-0.8-0.3-1.8,0-2.3,0.7l-22.5,30c-1.4,1.8-1.9,4.2-1.4,6.4c0.7,3,1.6,7.1,2.7,11.8
		c5.8,25,15.4,66.8,15.9,77.1c0.2,10.8-11.2,38.6-18,54.3c-1.7,4.1-4.8,7.4-8.6,9.7c-4,2.3-8.7,3.2-13.3,2.6
		c-3.8-0.5-8.9-1.3-14.6-2.2c-19.9-3-50-7.6-62.8-7.6c-8.6,0-50.6,7.3-84.4,13.1S79.4,551.5,74.8,551.5z M74.3,516.8
		c-3.8,3.2-6.9,7.2-9,11.8c-1,1.9-1.6,4.1-1.8,6.3c0,5.1,0.9,9.8,11.3,9.8c4.2,0,31.6-4.7,58.1-9.3c37.6-6.5,76.4-13.2,85.6-13.2
		c13.4,0,42.5,4.4,63.8,7.7c5.7,0.9,10.7,1.6,14.5,2.2c3,0.4,6.1-0.2,8.8-1.7c2.5-1.5,4.5-3.7,5.7-6.4c11-25.4,17.5-44.6,17.4-51.3
		c-0.4-9.6-10.3-52.6-15.7-75.8c-1.1-4.7-2-8.8-2.7-11.8c-1-4.2,0-8.7,2.6-12.1l22.5-30c2.3-3.1,6.5-4.4,10.1-3l12.3,4.4
		c2.1,0.8,4.4,1.1,6.6,1c39.2-1.5,167.5-6.4,170.5-6.3c4.4,0.2,7.4,4,10.1,7.2c1.2,1.4,3.3,4.1,4.4,4.3c8.2-2.1,87.2-43.6,96.1-51.6
		c4.5-4.1,21-21.2,36.9-37.7c21.7-22.6,36.2-37.6,39.6-40.3c4.9-4.3,29-17.6,53.3-31l9.2-5.1c1-0.5,1.4-1.8,0.8-2.8l-18.7-35.5
		c-0.5-1-1.6-1.4-2.6-1c-42,16.9-113.2,45.4-118.1,46.3c-10.9,2-132.4,5.5-138.8,5.5c-7.6,0-27.5-3.7-50.5-7.9
		c-23.9-4.4-51-9.4-61.2-9.4c-5.7,0-23.8,2.1-41.3,4.1c-12.5,1.4-24.2,2.8-31.9,3.5c-20.3,1.8-69.3,12.8-73.7,17.3
		c-1.8,2-3.9,8.4-5.6,13.6c-1.6,4.9-3.1,9.4-4.7,12c-2.2,3.6-12,8.9-27.8,17.1c-6.9,3.6-14.6,7.7-16.3,9.1c-4,3.4-5.8,10-5.9,10
		l-0.1,0.3c-21.6,56.8-53.7,144.6-53.7,153.6s2.9,15.4,5.2,20.5c1.6,3.5,2.8,6.3,2.8,9.1c-0.1,3.2-1.2,6.2-2.9,8.9
		c-1.6,2.6-3.7,5-6.1,7L74.3,516.8z"/>
	<path class="st9" d="M74.8,554.9c-14,0-21.7-7.2-21.7-20.1c0.1-3.7,1.1-7.3,2.7-10.6c2.7-5.9,6.7-11.1,11.7-15.3l59.1-50.8
		c1.5-1.3,2.9-2.8,3.9-4.5c1.4-2.2,1.4-3.3,1.4-3.5c-0.5-1.7-1.1-3.3-1.9-4.8c-2.6-5.8-6.1-13.7-6.1-24.8
		c0-13.5,45.1-132.9,54.3-157c0.6-1.9,3.2-9.8,9-14.7c2.5-2.1,8.3-5.2,18.3-10.4c6-3.1,21.7-11.3,24-13.6c1.4-3.1,2.6-6.3,3.5-9.6
		c2.3-7,4.4-13.6,7.6-17.2c8.2-9.4,66.6-19.6,80.6-20.8c7.5-0.6,19.2-2,31.6-3.4c18.6-2.1,36.2-4.2,42.5-4.2
		c11.2,0,37.6,4.9,63.1,9.6c19.7,3.6,42,7.8,48.6,7.8c10.7,0,128-3.7,136.9-5.4c2.9-0.7,40.1-15.1,116.1-45.7
		c5.9-2.4,12.7,0.1,15.7,5.8l18.6,35.5c3.2,6,1,13.4-5,16.7c-2.2,1.2-4.9,2.7-8,4.4l-1.2,0.7c-15.4,8.5-47.2,26-51.5,29.7l-0.3,0.2
		c-2.9,2.2-23.5,23.7-38.6,39.4c-16.8,17.5-32.6,33.9-37.4,38.3c-8.4,7.6-94.6,54.3-102.9,54.3c-5.8,0-9.7-4.7-12.5-8.1
		c-1-1.2-2-2.4-3.2-3.5c-9.3,0.2-109.9,4-169,6.3c-3.6,0.2-7.1-0.4-10.5-1.6l-11.3-4l-21.8,29.1c-0.8,1-1.1,2.3-0.8,3.6
		c0.7,2.9,1.5,6.7,2.5,11l0.2,0.8c7.9,34,15.5,67.9,16,77.8c0.2,10.9-9.8,36.4-18.2,55.8c-2,4.7-5.5,8.7-10,11.3
		c-4.7,2.7-10.1,3.8-15.5,3c-3.8-0.5-8.8-1.3-14.5-2.2c-19.9-3-49.8-7.6-62.4-7.6c-8.2,0-51.9,7.5-83.8,13.1
		C99.7,551.5,79.7,554.9,74.8,554.9z M74.8,548L74.8,548z M63.6,544.8c2.4,2.2,6.1,3.2,11.2,3.2C69.3,548,65.8,546.7,63.6,544.8
		L63.6,544.8z M74.9,548L74.9,548z M218.5,525.5c-8.8,0-49.3,7-85,13.2c-27.3,4.7-47,8.1-55.2,9.1c8.8-1.1,30.6-4.8,55.2-9.1
		C169.2,532.5,209.6,525.5,218.5,525.5c11.2,0,35.1,3.4,54.3,6.3C253.1,528.7,229.8,525.5,218.5,525.5L218.5,525.5z M76.5,519.4
		c-3.4,2.9-6.2,6.5-8.1,10.6c-0.8,1.5-1.3,3.1-1.4,4.8c0,3.9,0,6.3,7.9,6.3c3.9,0,33.6-5.1,57.5-9.3c39.5-6.8,76.7-13.3,86.2-13.3
		c13.6,0,42.9,4.5,64.4,7.7l0.4,0.1c5.5,0.8,10.3,1.6,14,2.1c4.6,0.7,9-1.8,10.9-6.1c12.7-29.4,17.2-45,17.1-49.9
		c-0.4-9.2-10.7-53.7-15.6-75.1c-1.1-4.7-2-8.8-2.7-11.8c-1.2-5.2,0-10.7,3.2-15l22.5-30c3.2-4.4,8.9-6.1,14.1-4.2l12.3,4.5
		c1.7,0.6,3.5,0.9,5.3,0.8c1.7-0.1,163.2-6.3,170.6-6.3h0.2c5.9,0.3,9.7,4.9,12.6,8.5c1,1.2,1.8,2.1,2.3,2.7
		c13.3-5.2,85-43,93.1-50.3c4.4-4,20.8-21,36.6-37.5c22.6-23.5,36.5-37.9,40-40.7c4.6-4,23.2-14.5,53.8-31.3c3-1.7,5.8-3.2,8-4.4
		L764.1,149c-74.1,29.8-113.7,45.3-117.6,46c-11.5,2.1-132.9,5.6-139.4,5.6c-7.9,0-27.9-3.7-51-8c-23.8-4.4-50.7-9.4-60.7-9.4
		c-5.5,0-24.3,2.2-40.9,4.1h-0.3c-12.4,1.4-24,2.8-31.7,3.4c-21.5,1.9-66.8,12.6-71.5,16.3c-1.3,1.7-3.6,8.6-4.8,12.3
		c-1.7,5.1-3.2,9.8-5.1,12.8c-2.6,4.2-10.9,8.8-29.2,18.4c-5.7,3-14.3,7.5-15.7,8.7c-2.6,2.3-4.3,6.8-4.8,8.4l-0.1,0.4
		c-26.4,69.4-53.6,145.3-53.6,152.6c0,8.2,2.6,14,4.9,19.1c1.7,3.8,3.1,7,3.1,10.5c-0.1,3.8-1.3,7.5-3.4,10.7
		c-1.8,3-4.1,5.6-6.8,7.9L76.5,519.4z M295.4,535.1l1,0.1h0.1h-0.1L295.4,535.1z M134.2,460.4c-0.9,1.1-1.9,2.1-3,3L72,514.1
		c-4.2,3.5-7.6,8-9.9,12.9c-0.2,0.4-0.3,0.8-0.5,1.1c0.2-0.4,0.3-0.7,0.5-1.1c2.3-5,5.7-9.4,9.9-12.9l2.3,2.6l-2.3-2.6l59.1-50.8
		C132.2,462.4,133.2,461.4,134.2,460.4z M327.3,492.7c-4,11.9-9.6,25.1-12.8,32.4c-0.3,0.6-0.6,1.2-0.9,1.8c0.3-0.6,0.6-1.2,0.9-1.8
		C320,512.5,324.3,501.5,327.3,492.7L327.3,492.7z M332.2,472c0,0.1,0,0.2,0,0.2l0,0C332.2,472.2,332.2,472.1,332.2,472z
		 M138.9,450.1c-0.1,2.1-0.7,4.2-1.8,6C138.2,454.3,138.8,452.2,138.9,450.1L138.9,450.1z M134.4,437.8c0.7,1.7,1.4,3.2,2,4.6
		c0.8,1.6,1.4,3.2,2,4.9c-0.6-1.7-1.2-3.3-2-4.9C135.8,441,135.1,439.5,134.4,437.8L134.4,437.8z M314.4,376.9
		c-1,2.2-1.3,4.8-0.7,7.2c0.7,3,1.6,7.1,2.7,11.8c2.5,10.7,5,21.8,7.3,32.1c-2.6-11.6-5.3-23.3-7.3-32.1l-0.2-0.7
		c-1-4.4-1.9-8.2-2.5-11.1C313.1,381.6,313.4,379.1,314.4,376.9L314.4,376.9z M130.9,420.5L130.9,420.5z M130.9,420.4l207.5-75.9
		l-0.2,0.3l-10.4,13.9l10.4-13.9L130.9,420.4z M184.9,265.4v0.2l-0.1,0.2c-10,26.4-20.4,54.2-29.3,78.9c13.7-37.8,28.2-76,29.3-79
		v-0.1L184.9,265.4z M342.9,342.6c0.4,0,0.8,0.1,1.2,0.2C343.7,342.7,343.3,342.6,342.9,342.6L342.9,342.6z M534.8,342.2
		c0.3,0,0.5,0,0.8,0.1C535.3,342.2,535,342.2,534.8,342.2L534.8,342.2z M674.5,274.2c-12.2,12.7-23,23.8-26.6,27.1
		c-5.5,5-38.3,23.1-64.5,36.6c26.1-13.4,58.5-31.2,64.5-36.6C651.5,298,662,287.1,674.5,274.2L674.5,274.2z M207.6,245
		c-3,1.6-5.9,3.1-8.4,4.4C201.5,248.2,204.3,246.7,207.6,245z M228.1,233.8c-4,2.4-9.9,5.6-18.6,10.1
		C216.1,240.5,223.1,236.9,228.1,233.8L228.1,233.8z M235.1,228.6L235.1,228.6l-0.1,0.1L235.1,228.6z M724.3,223.2L724.3,223.2
		c-0.2,0.1-0.2,0.2-0.3,0.3l0.2-0.1L724.3,223.2L724.3,223.2z M243,207.7c-1.2,2.8-2.3,6.2-3.4,9.5c-0.1,0.4-0.3,0.9-0.4,1.3
		l0.4-1.3C240.8,213.5,241.9,210.2,243,207.7z M777.3,192.5l-0.4,0.2c-9.2,5-21.5,11.8-32,17.8c9.4-5.4,20.9-11.7,31.9-17.8
		L777.3,192.5z M340.3,182c-7.2,0.8-13.7,1.5-18.5,1.9c-18.8,1.6-70.6,12.5-76,18.5c6-6.1,57.6-16.9,76-18.5
		C326.6,183.5,333.1,182.8,340.3,182z M469.6,188.1c17.4,3.2,31.6,5.6,37.5,5.6C501.2,193.7,486.5,191.2,469.6,188.1L469.6,188.1z
		 M788.5,180.6c1.2,2.6,0.1,5.7-2.4,7.1l-3.3,1.8l3.3-1.8C788.6,186.3,789.7,183.2,788.5,180.6L788.5,180.6z M645.3,188.2
		c-1.8,0.3-6.7,0.7-13.7,1.1C638.6,188.9,643.5,188.6,645.3,188.2L645.3,188.2z M395.3,176.3c9.1,0,30.4,3.7,51.4,7.6
		C425.1,179.9,404.5,176.3,395.3,176.3L395.3,176.3z M395.3,176.3c-6,0-24.1,2.1-41.7,4.1l-7.6,0.9l7.3-0.8h0.3
		C371.2,178.4,389.4,176.3,395.3,176.3L395.3,176.3z M788.5,180.6L788.5,180.6z M765.8,141.8c1.7,0.3,3.1,1.4,3.9,2.9l17.8,33.8
		l-17.8-33.8C768.9,143.2,767.5,142.1,765.8,141.8z M762.8,142.1L762.8,142.1c-17.1,6.9-59.6,23.9-88.6,35.3
		C691.6,170.5,719.1,159.6,762.8,142.1L762.8,142.1z"/>
	
		<linearGradient id="SVGID_1_" gradientUnits="userSpaceOnUse" x1="424.5346" y1="629.7387" x2="424.5346" y2="216.55" gradientTransform="matrix(1 0 0 -1 0 768)">
		<stop  offset="0" style="stop-color:#1B94E2"/>
		<stop  offset="1" style="stop-color:#40D8AB"/>
	</linearGradient>
	<path class="st11" d="M74.8,551.5c-12.1,0-18.3-5.6-18.3-16.7c0.2-3.2,1-6.3,2.4-9.2c2.5-5.4,6.2-10.3,10.8-14.1l59.1-50.8
		c1.8-1.5,3.4-3.3,4.6-5.4c1.1-1.6,1.7-3.4,1.9-5.3c0-1.3-1.1-3.7-2.2-6.3c-2.5-5.5-5.8-13-5.8-23.4c0-13.1,48.4-140.7,54.1-155.9
		c0.4-1.2,2.8-8.7,7.9-13.2c2.2-1.9,8.1-5,17.7-10c8.8-4.6,23.4-12.2,25.2-14.7c1.2-1.9,2.6-6.3,4-10.5c2.2-6.6,4.2-12.9,7-16
		c6.7-7.7,62.1-18.3,78.3-19.7c7.6-0.6,19.3-2,31.7-3.4c18.5-2.1,36-4.2,42.1-4.2c10.9,0,37.1,4.9,62.5,9.6
		c20.8,3.9,42.2,7.8,49.2,7.8c11.1,0,128.1-3.7,137.6-5.4c3.6-0.8,49.4-18.8,116.8-45.9c4.3-1.7,9.2,0.1,11.3,4.2l18.7,35.5
		c2.3,4.3,0.7,9.7-3.6,12.1c-2.4,1.4-5.6,3.1-9.2,5.1c-16.6,9.1-47.6,26.2-52.1,30.2l-0.2,0.1c-3,2.3-22.1,22.2-38.9,39.7
		s-32.5,33.8-37.2,38.1c-9.4,8.5-94,53.4-100.5,53.4c-4.2,0-7.2-3.6-9.9-6.9c-1.6-2-3.8-4.7-5.2-4.7c-1,0-12.1,0.3-75.2,2.7
		c-39.2,1.5-81.5,3.1-94.6,3.6c-3.1,0.1-6.3-0.3-9.2-1.4l-12.3-4.4c-0.8-0.3-1.8,0-2.3,0.7l-22.5,30c-1.4,1.8-1.9,4.2-1.4,6.4
		c0.7,3,1.6,7.1,2.7,11.7c5.8,25,15.5,66.9,15.9,77.2c0.2,10.8-11.2,38.6-18,54.3c-1.7,4.1-4.8,7.4-8.6,9.7l-0.5,0.2
		c-1.3,0.5-8.3,3-12.7,2.3c-3.8-0.5-8.9-1.3-14.6-2.2c-19.9-3-50-7.6-62.8-7.6c-8.6,0-50.6,7.3-84.4,13.1S79.4,551.5,74.8,551.5z
		 M395.3,179.8c-5.7,0-23.8,2.1-41.3,4.1c-12.5,1.4-24.2,2.8-31.9,3.5c-20.3,1.8-69.3,12.8-73.7,17.3c-1.8,2-3.9,8.4-5.6,13.6
		c-1.6,4.9-3.1,9.4-4.7,12c-2.2,3.6-12,8.9-27.8,17.1c-6.9,3.6-14.7,7.6-16.3,9.1c-4,3.4-5.8,10-5.9,10l-0.1,0.3
		c-21.6,56.8-53.7,144.6-53.7,153.6s2.9,15.4,5.2,20.5c1.6,3.5,2.8,6.3,2.8,9.1c-0.1,3.2-1.2,6.2-2.9,8.9c-1.6,2.6-3.7,5-6.1,7
		l-59.1,50.9c-3.8,3.2-6.9,7.2-9,11.8c-1,1.9-1.6,4.1-1.8,6.3c0,5.1,0.9,9.7,11.3,9.7c4.2,0,31.6-4.7,58.1-9.3
		c37.6-6.5,76.4-13.2,85.6-13.2c13.4,0,42.5,4.4,63.8,7.7c5.7,0.9,10.7,1.6,14.5,2.2c2,0.3,6.4-0.9,9.1-1.9c2.4-1.5,4.3-3.7,5.5-6.3
		c11-25.4,17.5-44.6,17.4-51.3c-0.4-9.6-10.4-52.7-15.7-75.8c-1.1-4.7-2-8.7-2.7-11.8c-1-4.2,0-8.7,2.6-12.1l22.5-30
		c2.3-3.1,6.5-4.4,10.1-3l12.3,4.4c2.1,0.8,4.4,1.1,6.6,1c13.1-0.5,55.4-2.1,94.6-3.6c73.9-2.8,75.4-2.7,75.9-2.7
		c4.4,0.2,7.4,4,10.1,7.2c1.2,1.4,3.3,4.1,4.4,4.3c8.2-2.1,87.2-43.6,96.1-51.6c4.5-4.1,21-21.2,36.9-37.8
		c21.7-22.6,36.2-37.6,39.6-40.3c4.9-4.3,29-17.6,53.3-31c3.6-2,6.7-3.7,9.2-5.1c1-0.5,1.4-1.8,0.8-2.8l-18.7-35.5
		c-0.5-1-1.6-1.4-2.6-1c-42,16.9-113.2,45.4-118.1,46.3c-10.9,2-132.4,5.5-138.8,5.5c-7.6,0-27.5-3.7-50.5-7.9
		C432.7,184.8,405.6,179.8,395.3,179.8z"/>
	<path class="st12" d="M549.6,357.2c-4.2,0-7.2-3.6-9.9-6.9c-1.6-2-3.8-4.7-5.2-4.7c-1,0-12.1,0.3-75.2,2.7l-0.3-6.9
		c73.9-2.8,75.4-2.7,75.9-2.7c4.4,0.2,7.4,4,10.1,7.2c1.2,1.4,3.3,4.1,4.4,4.3c8.2-2.1,87.2-43.6,96.1-51.6
		c4.5-4.1,21-21.2,36.9-37.8c21.7-22.6,36.2-37.6,39.6-40.3c4.9-4.3,29-17.6,53.3-31c3.6-2,6.7-3.7,9.2-5.1c1-0.5,1.4-1.8,0.8-2.8
		l-18.7-35.5c-0.5-1-1.6-1.4-2.6-1c-42,16.9-113.2,45.4-118.1,46.3l-1.3-6.8c3.6-0.8,49.5-18.8,116.8-45.9c4.3-1.7,9.2,0.1,11.3,4.2
		l18.7,35.5c2.3,4.3,0.7,9.7-3.6,12.1c-2.4,1.4-5.6,3.1-9.2,5.1c-16.6,9.1-47.6,26.2-52.1,30.2l-0.2,0.1c-3,2.3-22.1,22.2-38.9,39.7
		s-32.5,33.8-37.2,38.1C640.7,312.3,556.2,357.2,549.6,357.2z"/>
	<path class="st13" d="M74.8,551.5c-12.1,0-18.3-5.6-18.3-16.7c0.2-3.2,1-6.3,2.4-9.2c2.5-5.4,6.2-10.3,10.8-14.1L99,486.4l4.5,5.2
		l-29.2,25.1c-3.8,3.2-6.9,7.2-9,11.8c-1,1.9-1.6,4.1-1.8,6.3c0,5.1,0.9,9.7,11.3,9.7c4.2,0,31.6-4.7,58.1-9.3
		c37.6-6.5,76.4-13.2,85.6-13.2c13.4,0,42.5,4.4,63.8,7.7c5.7,0.9,10.7,1.6,14.5,2.2c2,0.3,6.4-0.9,9.1-1.9c2.4-1.5,4.3-3.7,5.5-6.3
		c11-25.4,17.5-44.6,17.4-51.3c-0.4-9.6-10.4-52.7-15.7-75.9c-1.1-4.7-2-8.7-2.7-11.8c-1-4.2,0-8.7,2.6-12.1l22.5-30
		c2.3-3.1,6.5-4.4,10.1-3l12.3,4.4c2.1,0.8,4.4,1.1,6.6,1c13.1-0.5,55.4-2.1,94.6-3.6l0.3,6.9c-39.2,1.5-81.5,3.1-94.6,3.6
		c-3.1,0.1-6.3-0.3-9.2-1.4l-12.3-4.4c-0.8-0.3-1.8,0-2.3,0.7l-22.5,30c-1.4,1.8-1.9,4.2-1.4,6.4c0.7,3,1.6,7.1,2.7,11.7
		c5.8,25,15.5,66.9,15.9,77.2c0.2,10.8-11.2,38.6-18,54.3c-1.7,4.1-4.8,7.4-8.6,9.7l-0.5,0.2c-1.3,0.5-8.3,3-12.7,2.3
		c-3.8-0.5-8.9-1.3-14.6-2.2c-19.9-3-50-7.6-62.8-7.6c-8.6,0-50.6,7.3-84.4,13.1S79.4,551.5,74.8,551.5z"/>
	<g id="Group-Copy-7">
		<circle id="Oval-Copy-2" class="st14" cx="748.7" cy="210.4" r="14.5"/>
		<circle id="Oval-Copy-2-2" class="st15" cx="748.7" cy="210.4" r="14.5"/>
		<circle id="Oval" class="st16" cx="748.7" cy="210.4" r="9.7"/>
		<path class="st17" d="M748.7,221.1c-5.9,0-10.7-4.8-10.7-10.7s4.8-10.7,10.7-10.7c5.9,0,10.7,4.8,10.7,10.7
			C759.4,216.4,754.6,221.1,748.7,221.1z M748.7,201.8c-4.8,0-8.6,3.9-8.6,8.6s3.9,8.6,8.6,8.6c4.8,0,8.6-3.9,8.6-8.6
			C757.3,205.7,753.4,201.8,748.7,201.8z"/>
		<circle id="Oval-Copy" class="st17" cx="748.7" cy="210.4" r="4.8"/>
	</g>
	<g id="SPEED-TRAP">
		<text transform="matrix(1 0 0 1 763.15 234.24)" class="st17 st4 st7">SPEED TRAP</text>
	</g>
	<g id="Group-2">
		<polygon id="Page-1" class="st18" points="581.3,216 576.6,221.2 581.5,225.6 		"/>
		<g id="F1-car">
			<path id="Shape" class="st19" d="M635.4,217.9c2.4,0,4.3,1.9,4.4,4.3s-1.9,4.3-4.3,4.4c-2.4,0-4.3-1.9-4.4-4.2
				C631.2,219.9,633.1,217.9,635.4,217.9z M635.5,224.3c1.2,0,2.1-1,2.1-2.2c0-1.2-1-2.1-2.2-2.1c-1.2,0-2.1,1-2.1,2.1
				C633.4,223.4,634.4,224.3,635.5,224.3C635.5,224.3,635.5,224.3,635.5,224.3z"/>
			<path id="Shape-2" class="st19" d="M599.5,219.7c2.1,0,3.7,1.6,3.7,3.7c0,2.1-1.6,3.7-3.7,3.7c-2,0-3.7-1.6-3.7-3.7
				C595.7,221.4,597.4,219.7,599.5,219.7C599.5,219.7,599.5,219.7,599.5,219.7z M599.6,225.2c1,0,1.8-0.9,1.8-1.9
				c0-1-0.9-1.8-1.9-1.8c-1,0-1.8,0.9-1.8,1.9C597.7,224.5,598.5,225.3,599.6,225.2C599.5,225.2,599.5,225.2,599.6,225.2
				L599.6,225.2z"/>
			<path id="Shape-3" class="st19" d="M635.4,217.2l-0.1-4.6l6.4-0.1l0.2,8.8h-1.4C640,218.9,637.9,217.2,635.4,217.2z"/>
			<path id="Shape-4" class="st19" d="M601.5,219.5c2.5-0.5,4.9-0.9,7.7-1.4c0.2-0.1,0.5,0,0.7,0.1c0.2,0.1,0.3,0.4,0.3,0.6h2.7
				c1.2,0,2.2-1,2.2-2.2c-0.3,0-0.6-0.3-0.6-0.6c0,0,0,0,0,0v-1.1c0-0.3,0.3-0.6,0.6-0.6l5-0.1c0.8,0,1.7,0.1,2.5,0.3
				c3.5,0.9,6.9,2.1,10.2,3.5c-1.4,0.9-2.3,2.5-2.3,4.2c0,0.7,0.2,1.4,0.5,2l-27.2,0.5c0.2-0.5,0.2-0.9,0.2-1.4
				C604,221.7,603,220.2,601.5,219.5z"/>
			<circle id="Oval-2" class="st19" cx="635.4" cy="222.3" r="1"/>
			<path id="Shape-5" class="st19" d="M592.5,225.4v-1l-2.9-0.1c-0.4,0-0.6-0.3-0.6-0.6v-0.1c0-0.3,0.2-0.6,0.5-0.7
				c2.5-0.9,4.6-1.6,6.5-2.1c-0.9,1.2-1.2,2.8-0.6,4.1h-0.9v0.4h0.6v0.9l-6.4,0.1v-0.5L592.5,225.4z"/>
			<circle id="Oval-3" class="st19" cx="599.4" cy="223.6" r="1"/>
		</g>
	</g>
	<g id="Oval-Copy-6">
		
			<ellipse id="Oval-4" transform="matrix(0.1602 -0.9871 0.9871 0.1602 -18.2211 459.0436)" class="st9" cx="260.7" cy="240.2" rx="12.4" ry="12.4"/>
		<path id="_00" class="st20" d="M259.3,240.4v-1.1h1.3c1,0.1,1.9-0.7,2-1.8c0,0,0-0.1,0-0.1c0-1-0.8-1.8-1.8-1.8
			c-0.1,0-0.1,0-0.2,0c-1.1-0.1-2,0.7-2.1,1.7c0,0,0,0.1,0,0.1h-1.3c0.1-1.7,1.5-3,3.2-3c0.1,0,0.1,0,0.2,0c1.6-0.2,3.1,1,3.3,2.7
			c0,0,0,0.1,0,0.1c0.1,1.2-0.7,2.2-1.8,2.4v0.1c1.3,0.1,2.4,1.3,2.3,2.6c0,1.7-1.6,3.1-3.7,3.1s-3.6-1.2-3.7-3h1.3
			c0.2,1.2,1.2,2,2.4,1.8c1.2,0.1,2.2-0.7,2.4-1.9c0,0,0-0.1,0-0.1c0-1.2-0.9-2-2.4-2L259.3,240.4z"/>
	</g>
	<g id="Oval-Copy-7">
		<circle id="Oval-5" class="st9" cx="171.2" cy="242.4" r="12.4"/>
		<path id="_00-2" class="st20" d="M172.4,247.4v-2.2h-5.1V244c0.9-1.7,2.6-4.3,4.5-7.1h1.9v7.2h1.5v1.2h-1.5v2.2L172.4,247.4z
			 M168.6,244L168.6,244l3.8,0.1v-5.9h-0.1C171.2,239.7,169.9,241.9,168.6,244z"/>
	</g>
	<g id="Oval-Copy-13">
		<circle id="Oval-6" class="st9" cx="224" cy="192.2" r="12.4"/>
		<path id="_00-3" class="st20" d="M220.6,189.6c0-1.8,1.4-3.2,3.1-3.2c0.1,0,0.2,0,0.2,0c1.7-0.1,3.2,1.2,3.3,2.9c0,0,0,0.1,0,0.1
			c0,1.1-0.5,1.9-2.2,3.8l-2.5,2.7v0.1h4.9v1.2h-6.8v-0.9l3.6-4c1.4-1.5,1.7-2,1.7-2.9c-0.1-1.1-1.1-2-2.3-1.8c-1.1,0.1-1.9,1-1.9,2
			L220.6,189.6L220.6,189.6z"/>
	</g>
	<g id="Oval-Copy-21">
		<circle id="Oval-7" class="st9" cx="505.9" cy="223.6" r="12.4"/>
		<polygon id="_00-4" class="st20" points="506.1,228.5 506.1,219.5 506,219.5 503.3,221.4 503.3,220.1 506.1,218 507.4,218 
			507.4,228.5 		"/>
	</g>
	<g id="Oval-8">
		<circle class="st9" cx="213.4" cy="557" r="12.4"/>
		<path id="_00-5" class="st20" d="M213.4,562.2c-2.2,0-3.8-1.3-3.8-3.1c0-1.3,0.9-2.5,2.2-2.7v-0.1c-1-0.3-1.8-1.2-1.7-2.3
			c0-1.6,1.4-2.8,3.4-2.8s3.4,1.2,3.4,2.8c0,1.1-0.7,2.1-1.8,2.3v0.1c1.3,0.2,2.2,1.4,2.2,2.7C217.1,560.9,215.6,562.2,213.4,562.2z
			 M213.4,561c1.4,0,2.5-0.8,2.5-2s-1-2-2.5-2s-2.5,0.8-2.5,2S211.9,561,213.4,561z M213.4,555.9c1-0.1,1.7-1.1,1.5-2.1
			c-0.1-1-1.1-1.7-2.1-1.5c-0.9,0.1-1.6,0.9-1.5,1.8c0,1,0.9,1.8,1.9,1.8C213.2,555.9,213.3,555.9,213.4,555.9z"/>
	</g>
	<g id="Oval-Copy-2-3">
		<circle id="Oval-9" class="st9" cx="318.8" cy="561" r="12.4"/>
		<path id="_00-6" class="st20" d="M318.5,566.3c-1.7,0.1-3.2-1.1-3.4-2.8h1.3c0.3,1,1.1,1.6,2.1,1.6c1.7,0,2.7-1.5,2.8-4.3h-0.1
			c-0.5,1-1.6,1.7-2.8,1.6c-1.9,0-3.4-1.4-3.5-3.3c0-0.1,0-0.2,0-0.2c-0.1-1.9,1.5-3.6,3.4-3.6c0.1,0,0.2,0,0.3,0
			c1.5,0,2.9,0.9,3.4,2.4c0.4,0.9,0.5,1.9,0.5,2.9C322.6,564.2,321.1,566.3,318.5,566.3z M318.6,561.3c1.3,0.1,2.3-0.9,2.4-2.2
			c0-0.1,0-0.1,0-0.2c0-1.3-1.1-2.4-2.4-2.4c-1.3,0-2.4,1.1-2.4,2.4c0,0,0,0,0,0c-0.1,1.3,0.9,2.3,2.2,2.4
			C318.5,561.3,318.6,561.3,318.6,561.3z"/>
	</g>
	<g id="Oval-Copy-20">
		<circle id="Oval-10" class="st9" cx="335" cy="320.2" r="12.4"/>
		<path id="_00-7" class="st20" d="M330.7,325.2v-9h-0.1l-2.7,1.9v-1.4l2.8-2h1.3v10.5L330.7,325.2z M335.1,317.6
			c0-1.8,1.4-3.2,3.1-3.2c0.1,0,0.2,0,0.2,0c1.7-0.1,3.2,1.2,3.3,2.9c0,0,0,0.1,0,0.1c0,1.1-0.5,1.9-2.2,3.8l-2.5,2.7v0.1h5v1.2
			h-6.8v-0.9l3.6-4c1.4-1.5,1.7-2,1.7-2.9c0-1.1-0.9-1.9-2-1.9c0,0,0,0,0,0c-1.1,0-2,0.8-2.1,1.9c0,0,0,0.1,0,0.1h-1.3L335.1,317.6z
			"/>
	</g>
	<g id="Oval-Copy-3">
		
			<ellipse id="Oval-11" transform="matrix(0.9999 -1.514629e-02 1.514629e-02 0.9999 -8.2996 0.6191)" class="st9" cx="36.7" cy="548.2" rx="12.4" ry="12.4"/>
		<polygon id="_00-8" class="st20" points="34.1,553.2 38.8,544 38.8,543.9 33.2,543.9 33.2,542.7 40.1,542.7 40.1,543.9 
			35.5,553.2 		"/>
	</g>
	<g id="Oval-Copy-4">
		<circle id="Oval-12" class="st9" cx="162.5" cy="458.1" r="12.4"/>
		<path id="_00-9" class="st20" d="M162.6,463.3c-1.5,0-2.9-0.9-3.4-2.4c-0.4-0.9-0.5-1.9-0.5-2.9c0-3.6,1.5-5.7,4-5.7
			c1.7-0.1,3.2,1.1,3.4,2.7h-1.4c-0.2-1-1.1-1.6-2.1-1.6c-1.7,0-2.7,1.5-2.8,4.3h0.1c0.5-1,1.6-1.7,2.8-1.6c1.9-0.1,3.4,1.4,3.5,3.3
			c0,0.1,0,0.2,0,0.2c0.1,1.9-1.5,3.6-3.4,3.6C162.8,463.3,162.7,463.3,162.6,463.3z M162.6,462.1c1.3,0,2.4-1,2.4-2.3
			c0,0,0,0,0-0.1c0.1-1.3-0.9-2.5-2.2-2.6s-2.5,0.9-2.6,2.2c0,0.1,0,0.2,0,0.3c-0.1,1.3,1,2.4,2.3,2.5
			C162.5,462.1,162.6,462.1,162.6,462.1L162.6,462.1z"/>
	</g>
	<g id="Oval-Copy-5">
		<circle id="Oval-13" class="st9" cx="107.1" cy="417.3" r="12.4"/>
		<path id="_00-10" class="st20" d="M107.1,422.5c-1.8,0.1-3.4-1.2-3.5-3c0,0,0,0,0,0h1.3c0.1,1.1,1.1,2,2.3,1.9
			c1.3,0,2.4-1.1,2.4-2.4s-1.1-2.4-2.4-2.4c-0.9,0-1.7,0.4-2.2,1.2h-1.2l0.6-6h5.9v1.2h-4.8l-0.3,3.4h0.1c0.6-0.6,1.4-0.9,2.2-0.9
			c1.8,0,3.3,1.4,3.4,3.2c0,0.1,0,0.2,0,0.3c0.1,1.9-1.4,3.5-3.3,3.6C107.3,422.5,107.2,422.5,107.1,422.5z"/>
	</g>
	<g id="Oval-Copy-24">
		<circle id="Oval-14" class="st9" cx="544.7" cy="383.8" r="12.4"/>
		<path id="_00-11" class="st20" d="M540.3,388.8v-9h-0.1l-2.7,1.9v-1.4l2.8-2h1.3v10.5L540.3,388.8z M548.2,389
			c-1.8,0.1-3.4-1.2-3.5-3c0,0,0,0,0,0h1.3c0.1,1.1,1.1,2,2.2,1.9c1.3,0,2.4-1.1,2.4-2.4s-1.1-2.4-2.4-2.4c-0.9,0-1.7,0.4-2.2,1.2
			h-1.2l0.6-6h5.9v1.2h-4.8l-0.3,3.4h0.1c0.6-0.6,1.4-0.9,2.2-0.9c1.8-0.1,3.4,1.4,3.4,3.2c0,0.1,0,0.2,0,0.3
			c0.1,1.9-1.4,3.5-3.3,3.6C548.5,389,548.3,389,548.2,389L548.2,389z"/>
	</g>
	<g id="Oval-Copy-28">
		<circle id="Oval-15" class="st9" cx="743.8" cy="247.6" r="12.4"/>
		<path id="_00-12" class="st20" d="M739.3,252.6v-9.1h-0.1l-2.7,1.9v-1.4l2.8-2h1.3v10.5L739.3,252.6z M747.4,252.9
			c-1.5,0-2.9-0.9-3.4-2.4c-0.4-0.9-0.5-1.9-0.5-2.9c0-3.6,1.5-5.7,4-5.7c1.7-0.1,3.2,1.1,3.4,2.7h-1.3c-0.2-1-1.1-1.6-2.1-1.6
			c-1.7,0-2.7,1.5-2.8,4.3h0.1c0.5-1,1.6-1.7,2.8-1.6c1.9,0,3.4,1.4,3.5,3.3c0,0.1,0,0.2,0,0.2c0.1,1.9-1.4,3.6-3.4,3.7
			C747.6,252.9,747.5,252.9,747.4,252.9L747.4,252.9z M747.4,251.7c1.3,0,2.4-1,2.4-2.3c0,0,0-0.1,0-0.1c0-1.3-1.1-2.4-2.4-2.4
			s-2.4,1.1-2.4,2.4c0,0,0,0,0,0C745,250.6,746.1,251.7,747.4,251.7C747.4,251.7,747.4,251.7,747.4,251.7L747.4,251.7z"/>
	</g>
	<g id="Oval-Copy-29">
		<circle id="Oval-16" class="st9" cx="813.1" cy="186.4" r="12.4"/>
		<path id="_00-13" class="st20" d="M809.1,191.4v-9.1H809l-2.7,1.9v-1.4l2.8-2h1.3v10.5L809.1,191.4z M813.9,191.4l4.7-9.2V182H813
			v-1.2h7v1.2l-4.7,9.3L813.9,191.4z"/>
	</g>
	<g id="Oval-Copy-30">
		<circle id="Oval-17" class="st9" cx="770.7" cy="118.6" r="12.4"/>
		<path id="_00-14" class="st20" d="M766.2,123.6v-9h-0.1l-2.7,1.9v-1.4l2.8-2h1.3v10.5L766.2,123.6z M774.2,123.8
			c-2.2,0-3.8-1.3-3.8-3.1c0-1.3,0.9-2.5,2.2-2.7V118c-1.1-0.3-1.8-1.3-1.8-2.3c0-1.6,1.4-2.8,3.4-2.8s3.3,1.2,3.3,2.8
			c0,1.1-0.7,2.1-1.8,2.3v0.1c1.3,0.2,2.2,1.4,2.2,2.7C778,122.5,776.4,123.8,774.2,123.8L774.2,123.8z M774.2,122.7
			c1.5,0,2.5-0.8,2.5-2s-1-2-2.5-2s-2.5,0.8-2.5,2S772.8,122.7,774.2,122.7L774.2,122.7z M774.2,117.5c1-0.1,1.7-1.1,1.5-2.1
			s-1.1-1.7-2.1-1.5c-0.9,0.1-1.6,0.9-1.5,1.8c0,1,0.8,1.8,1.9,1.8C774.1,117.5,774.1,117.5,774.2,117.5L774.2,117.5z"/>
	</g>
	<g id="Oval-Copy-31">
		<circle id="Oval-18" class="st9" cx="664.7" cy="213.2" r="12.4"/>
		<path id="_00-15" class="st20" d="M660.1,218.2v-9H660l-2.7,1.9v-1.4l2.8-2h1.3v10.5L660.1,218.2z M667.9,218.4
			c-1.7,0.1-3.2-1.1-3.4-2.7h1.3c0.3,1,1.1,1.6,2.1,1.6c1.7,0,2.7-1.5,2.8-4.3h-0.1c-0.5,1-1.6,1.7-2.8,1.6
			c-1.9,0.1-3.4-1.4-3.5-3.3c0-0.1,0-0.2,0-0.2c-0.1-1.9,1.5-3.6,3.4-3.6c0.1,0,0.2,0,0.3,0c1.5,0,2.9,0.9,3.4,2.4
			c0.4,0.9,0.5,1.9,0.5,2.9C672,216.3,670.5,218.4,667.9,218.4L667.9,218.4z M668,213.4c1.3,0.1,2.3-0.9,2.4-2.2c0-0.1,0-0.1,0-0.2
			c0-1.3-1-2.4-2.3-2.5c0,0-0.1,0-0.1,0c-1.3,0-2.4,1-2.4,2.3c0,0,0,0.1,0,0.1c-0.1,1.3,0.9,2.3,2.1,2.4
			C667.9,213.4,667.9,213.4,668,213.4L668,213.4z"/>
	</g>
	<g id="Oval-Copy-27">
		<circle id="Oval-19" class="st9" cx="540" cy="318" r="12.4"/>
		<path id="_00-16" class="st20" d="M535.4,323v-9h-0.1l-2.7,1.9v-1.4l2.8-2h1.3V323H535.4z M544.7,323v-2.2h-5.1v-1.2
			c0.9-1.7,2.6-4.3,4.5-7.1h1.9v7.2h1.5v1.2H546v2.2H544.7z M540.9,319.6L540.9,319.6l3.8,0.1v-5.9h-0.1
			C543.5,315.3,542.2,317.5,540.9,319.6L540.9,319.6z"/>
	</g>
	<g id="Oval-Copy-25">
		<circle id="Oval-20" class="st9" cx="359.6" cy="378.6" r="12.4"/>
		<path id="_00-17" class="st20" d="M355.1,383.5v-9H355l-2.7,1.9V375l2.8-2h1.3v10.5L355.1,383.5z M361.7,378.7v-1.1h1.3
			c1,0.1,1.9-0.7,2-1.8c0,0,0-0.1,0-0.1c0-1-0.8-1.8-1.8-1.8c-0.1,0-0.1,0-0.2,0c-1.1-0.1-2,0.7-2.1,1.7c0,0,0,0.1,0,0.1h-1.3
			c0.1-1.7,1.5-3,3.2-3c0.1,0,0.1,0,0.2,0c1.6-0.2,3.1,1,3.3,2.7c0,0,0,0.1,0,0.1c0.1,1.2-0.7,2.2-1.8,2.4v0.1
			c1.3,0.1,2.4,1.3,2.3,2.6c0,1.7-1.6,3.1-3.7,3.1s-3.6-1.2-3.7-3h1.3c0.2,1.2,1.2,2,2.4,1.8c1.2,0.1,2.2-0.7,2.4-1.9
			c0,0,0-0.1,0-0.1c0-1.2-0.9-2-2.4-2L361.7,378.7z"/>
	</g>
	<g id="Oval-Copy-2-4">
		<circle id="Oval-21" class="st9" cx="356.1" cy="470.5" r="12.4"/>
		<path id="_00-18" class="st20" d="M351.6,475.5v-9.1h-0.1l-2.7,1.9V467l2.8-2h1.3v10.5L351.6,475.5z M359.6,475.7
			c-2.4,0-3.7-2-3.7-5.5s1.4-5.5,3.7-5.5s3.7,2,3.7,5.5S362,475.7,359.6,475.7L359.6,475.7z M359.6,474.6c1.5,0,2.4-1.5,2.4-4.4
			s-0.9-4.4-2.4-4.4s-2.4,1.6-2.4,4.4S358,474.6,359.6,474.6L359.6,474.6z"/>
	</g>
	<g id="Oval-Copy-26">
		<circle id="Oval-22" class="st9" cx="290.5" cy="380.3" r="12.4"/>
		<path id="_00-19" class="st20" d="M287.2,385.3v-9h-0.1l-2.7,1.9v-1.4l2.8-2h1.3v10.5L287.2,385.3z M294.1,385.3v-9H294l-2.7,1.9
			v-1.4l2.8-2h1.3v10.5L294.1,385.3z"/>
	</g>
	<g id="Group-Copy-8">
		<circle id="Oval-Copy-2-5" class="st14" cx="648.9" cy="301.9" r="14.5"/>
		<circle id="Oval-Copy-2-6" class="st21" cx="648.9" cy="301.9" r="14.5"/>
		<circle id="Oval-23" class="st16" cx="648.9" cy="301.9" r="9.7"/>
		<path class="st22" d="M648.9,312.6c-5.9,0-10.7-4.8-10.7-10.7c0-5.9,4.8-10.7,10.7-10.7c5.9,0,10.7,4.8,10.7,10.7c0,0,0,0,0,0
			C659.6,307.8,654.8,312.6,648.9,312.6z M648.9,293.2c-4.8,0-8.6,3.9-8.6,8.6c0,4.8,3.9,8.6,8.6,8.6c4.8,0,8.6-3.9,8.6-8.6
			c0,0,0,0,0,0C657.6,297.1,653.7,293.3,648.9,293.2z"/>
		<circle id="Oval-Copy-3-2" class="st22" cx="648.9" cy="301.9" r="4.8"/>
	</g>
	<path class="st22" d="M251.3,203.1l-2.8-6.3c14.2-6.3,56.5-14.9,73.1-16.4c7.6-0.6,19.3-2,31.7-3.4c18.5-2.1,36-4.2,42.1-4.2
		c10.9,0,37.1,4.9,62.5,9.6c20.8,3.9,42.2,7.8,49.2,7.8c6.1,0,63.5-1.7,102.1-3.3l0.3,6.9c-38.7,1.6-96.3,3.3-102.4,3.3
		c-7.6,0-27.5-3.7-50.5-7.9c-23.9-4.4-51-9.4-61.2-9.4c-5.7,0-23.8,2.1-41.3,4.1c-12.5,1.4-24.2,2.8-31.9,3.5
		C306.4,188.7,264.6,197.2,251.3,203.1z"/>
	<path class="st6" d="M609.4,193.8l-0.3-6.9c27.2-1.2,33.9-1.8,35.4-2.1c0.5-0.1,3-0.9,15.6-5.7l2.5,6.5c-14.8,5.7-16.2,6-16.8,6.1
		C644.7,191.9,641.2,192.5,609.4,193.8z"/>
	<g id="Group-6">
		
			<rect id="Rectangle-2" x="609.3" y="184.9" transform="matrix(0.9998 -1.780142e-02 1.780142e-02 0.9998 -3.2274 10.9077)" width="3.6" height="3.6"/>
		
			<rect id="Rectangle-2-Copy-4" x="605.6" y="185" transform="matrix(0.9998 -1.780142e-02 1.780142e-02 0.9998 -3.2291 10.8432)" class="st16" width="3.6" height="3.6"/>
		
			<rect id="Rectangle-2-Copy-7" x="602" y="185.1" transform="matrix(0.9998 -1.780142e-02 1.780142e-02 0.9998 -3.2308 10.7788)" width="3.6" height="3.6"/>
		
			<rect id="Rectangle-2-Copy" x="609.3" y="188.6" transform="matrix(0.9998 -1.780142e-02 1.780142e-02 0.9998 -3.2919 10.9095)" class="st16" width="3.6" height="3.6"/>
		
			<rect id="Rectangle-2-Copy-5" x="605.7" y="188.6" transform="matrix(0.9998 -1.780142e-02 1.780142e-02 0.9998 -3.2937 10.8451)" width="3.6" height="3.6"/>
		
			<rect id="Rectangle-2-Copy-9" x="602.1" y="188.7" transform="matrix(0.9998 -1.780142e-02 1.780142e-02 0.9998 -3.2954 10.7805)" class="st16" width="3.6" height="3.6"/>
		
			<rect id="Rectangle-2-Copy-3" x="609.4" y="192.2" transform="matrix(0.9998 -1.780142e-02 1.780142e-02 0.9998 -3.3563 10.9112)" width="3.6" height="3.6"/>
		
			<rect id="Rectangle-2-Copy-6" x="605.8" y="192.2" transform="matrix(0.9998 -1.780142e-02 1.780142e-02 0.9998 -3.3582 10.8466)" class="st16" width="3.6" height="3.6"/>
		
			<rect id="Rectangle-2-Copy-10" x="602.1" y="192.3" transform="matrix(0.9998 -1.780142e-02 1.780142e-02 0.9998 -3.3598 10.782)" width="3.6" height="3.6"/>
	</g>
</g>
</svg>
