<svg xmlns="http://www.w3.org/2000/svg" viewBox="0 0 500 500" width="500" height="500">
  <path
    d="M 200,100 C 260,80 320,90 350,130 L 380,170 C 410,210 400,260 370,280 C 340,300 310,290 290,270 C 270,250 260,220 240,210 C 220,200 195,210 180,230 C 160,255 160,290 175,315 L 200,350 C 220,385 210,420 185,435 C 160,450 130,440 115,415 L 100,380 C 85,345 90,300 115,270 L 140,240 C 155,220 155,190 140,170 L 115,140 C 100,115 120,90 150,90 L 200,100 Z"
    fill="none"
    stroke="white"
    stroke-width="18"
    stroke-linecap="round"
    stroke-linejoin="round"
  />
</svg>