<svg xmlns="http://www.w3.org/2000/svg" viewBox="0 0 500 500" width="500" height="500">
  <path
    d="M 120,420 L 100,350 C 92,315 105,285 132,268 L 175,248 L 170,190 C 168,160 185,138 212,132 L 300,118 C 340,112 372,130 382,168 L 390,210 C 396,240 380,262 352,268 L 290,278 L 295,340 C 297,368 315,382 345,378 L 390,370 C 415,365 430,382 428,408 L 425,425 C 422,447 400,458 378,453 L 145,453 C 130,453 122,440 120,420 Z"
    fill="none"
    stroke="white"
    stroke-width="18"
    stroke-linecap="round"
    stroke-linejoin="round"
  />
</svg>