<svg xmlns="http://www.w3.org/2000/svg" viewBox="0 0 500 500" width="500" height="500">
  <path
    d="M 200,80 L 320,80 C 360,80 390,105 395,145 L 400,200 C 403,230 390,250 368,258 L 330,268 C 308,275 300,295 305,320 L 315,370 C 323,405 310,430 280,440 L 230,450 C 200,455 178,440 170,415 L 155,355 C 146,320 160,295 188,285 L 220,275 C 245,267 252,248 245,225 L 235,175 C 226,145 205,130 178,135 L 155,142 C 130,148 115,135 118,110 C 121,88 155,75 185,78 L 200,80 Z"
    fill="none"
    stroke="white"
    stroke-width="18"
    stroke-linecap="round"
    stroke-linejoin="round"
  />
</svg>